<svg id="MSMT_AlezZelinka" xmlns="http://www.w3.org/2000/svg" xmlns:xlink="http://www.w3.org/1999/xlink" width="99" height="102.344" viewBox="0 0 99 102.344">
  <defs>
    <clipPath id="clip-path">
      <rect id="Rectangle_332" data-name="Rectangle 332" width="99" height="102.344" fill="none"/>
    </clipPath>
  </defs>
  <path id="Path_1482" data-name="Path 1482" d="M58.077,36.637l8.769-5.216H64.071l-8.057,3.628-8.2-3.628H45.2l8.835,5.216Z" transform="translate(8.431 4.587)" fill="#141215"/>
  <g id="Group_819" data-name="Group 819">
    <g id="Group_818" data-name="Group 818" clip-path="url(#clip-path)">
      <path id="Path_1483" data-name="Path 1483" d="M71.066,69.442c4.379-1.4,7.633-3.858,8.069-7.3,0-4.858-5.691-6.8-11.3-7.956-8.139-1.616-13.924-2.959-14.83-6.474a2.971,2.971,0,0,1-.178-1.111c.178-3.794,5.513-6.152,10.395-6.152,4.972,0,8.139.648,11.3,3.609l2.711-.879C73.713,40.035,68.92,39.2,63.224,39.2a27.41,27.41,0,0,0-11.7,2.21V31.421h-7.21l-18.376,23.8h-.176L7.033,31.421H0V60.569H3.429V35.108L24.023,61.069H17.687V90.216h2.906V64.756L41.431,91.027h.088L62.536,64.4V90.216H68.69V70.839H79.568V98.022H85.9V70.839H99v-1.4Zm-2.376-1.68V61.069H61.478L55.58,68.7A13.444,13.444,0,0,1,49.3,65.285L46.32,66.4a16.422,16.422,0,0,0,8.135,3.767L43.1,84.864h-.177L24.4,61.325,45.371,34.749v25.82h6.154V53.476c3.253,1.3,7.707,2.134,12.243,3.162,6.691,1.432,8.68,3.976,8.68,6.428,0,1.889-1.36,3.554-3.759,4.695" transform="translate(0 4.321)" fill="#141215"/>
      <path id="Path_1484" data-name="Path 1484" d="M12.857,7.846h5.086L19,10.234h1.436L16.084.683H14.731L10.4,10.234H11.8ZM15.4,2.075l2.066,4.68h-4.13Z" transform="translate(1.456 0.094)" fill="#141215"/>
      <path id="Path_1485" data-name="Path 1485" d="M21.6,8.324l1.5-1.391L25.821,10.3h1.613L24.084,6.06l3.048-2.987H25.547L21.6,6.674V.18H20.284V10.3H21.6Z" transform="translate(2.841 0.025)" fill="#141215"/>
      <path id="Path_1486" data-name="Path 1486" d="M28.9,6.36a2.159,2.159,0,0,1,2.284-2.441,2.534,2.534,0,0,1,.3.013V2.663a2.768,2.768,0,0,0-2.639,1.282V2.731H27.592V9.963H28.9Z" transform="translate(3.864 0.366)" fill="#141215"/>
      <path id="Path_1487" data-name="Path 1487" d="M35.678,10.043a3.637,3.637,0,0,0,2.856-1.174l-.723-.845a2.712,2.712,0,0,1-2.092.872,2.452,2.452,0,0,1-2.626-2.115h5.878A3.8,3.8,0,0,0,39,6.387a3.491,3.491,0,0,0-3.583-3.725,3.545,3.545,0,0,0-3.636,3.684,3.624,3.624,0,0,0,3.9,3.7m-.261-6.276a2.257,2.257,0,0,1,2.325,2.074H33.093a2.254,2.254,0,0,1,2.323-2.074" transform="translate(4.451 0.366)" fill="#141215"/>
      <path id="Path_1488" data-name="Path 1488" d="M42.787,10.385a3.063,3.063,0,0,0,2.584-1.227V10.3h1.257V.18H45.317V4.164A3.086,3.086,0,0,0,42.787,3a3.513,3.513,0,0,0-3.664,3.683,3.524,3.524,0,0,0,3.664,3.7M42.9,4.15a2.381,2.381,0,0,1,2.434,2.538,2.443,2.443,0,1,1-4.881,0A2.384,2.384,0,0,1,42.9,4.15" transform="translate(5.479 0.025)" fill="#141215"/>
      <rect id="Rectangle_330" data-name="Rectangle 330" width="1.312" height="7.23" transform="translate(54.602 3.097)" fill="#141215"/>
      <path id="Path_1489" data-name="Path 1489" d="M48.58,1.706A.854.854,0,1,0,48.58,0a.864.864,0,0,0-.888.86.852.852,0,0,0,.888.846" transform="translate(6.679 0)" fill="#141215"/>
      <path id="Path_1490" data-name="Path 1490" d="M51.562,7.962a2.066,2.066,0,0,0,2.3,2.265,2.48,2.48,0,0,0,1.586-.505l-.41-.941a1.654,1.654,0,0,1-1.026.341,1.067,1.067,0,0,1-1.134-1.215V3.992h2.079V2.914H52.874V1.331H51.562V2.914H50.331V3.992h1.231Z" transform="translate(7.048 0.183)" fill="#141215"/>
      <path id="Path_1491" data-name="Path 1491" d="M58.632,5.8c-2.16,0-2.913.956-2.913,2.115,0,1.255,1.04,2.128,2.68,2.128a2.694,2.694,0,0,0,2.379-1.036v.954h1.244V5.6c0-1.978-1.121-2.934-3.1-2.934a4.827,4.827,0,0,0-2.994.928l.546.983a3.666,3.666,0,0,1,2.3-.778c1.3,0,1.941.64,1.941,1.746V5.8ZM60.71,7.751a2.1,2.1,0,0,1-2.092,1.282c-1,0-1.6-.45-1.6-1.173,0-.614.369-1.119,1.668-1.119H60.71Z" transform="translate(7.803 0.366)" fill="#141215"/>
      <path id="Path_1492" data-name="Path 1492" d="M66.663,10.043a3.243,3.243,0,0,0,2.954-1.555l-1-.628A2.26,2.26,0,0,1,66.65,8.9a2.4,2.4,0,0,1-2.489-2.551A2.4,2.4,0,0,1,66.65,3.808a2.26,2.26,0,0,1,1.969,1.037l1-.642a3.233,3.233,0,0,0-2.954-1.541,3.616,3.616,0,0,0-3.828,3.683,3.627,3.627,0,0,0,3.828,3.7" transform="translate(8.799 0.366)" fill="#141215"/>
      <path id="Path_1493" data-name="Path 1493" d="M73.488,10.043a3.64,3.64,0,0,0,2.857-1.174l-.724-.845a2.712,2.712,0,0,1-2.092.872A2.452,2.452,0,0,1,70.9,6.782h5.879c.014-.123.029-.287.029-.395a3.491,3.491,0,0,0-3.583-3.725,3.545,3.545,0,0,0-3.637,3.684,3.624,3.624,0,0,0,3.9,3.7m-.26-6.276a2.258,2.258,0,0,1,2.325,2.074H70.9a2.256,2.256,0,0,1,2.325-2.074" transform="translate(9.746 0.366)" fill="#141215"/>
      <path id="Path_1494" data-name="Path 1494" d="M10.02,20.2c-2.16,0-2.913.956-2.913,2.115,0,1.255,1.04,2.128,2.68,2.128a2.694,2.694,0,0,0,2.379-1.036v.954H13.41V20c0-1.978-1.121-2.934-3.1-2.934a4.827,4.827,0,0,0-2.994.928l.546.983a3.666,3.666,0,0,1,2.3-.778c1.3,0,1.941.64,1.941,1.746V20.2ZM12.1,22.151a2.1,2.1,0,0,1-2.092,1.282c-1,0-1.6-.45-1.6-1.173,0-.614.369-1.119,1.668-1.119H12.1Z" transform="translate(0.995 2.347)" fill="#141215"/>
      <path id="Path_1495" data-name="Path 1495" d="M23.814,24.362V20c0-1.978-1.121-2.934-3.1-2.934a4.83,4.83,0,0,0-2.995.928l.546.983a3.672,3.672,0,0,1,2.3-.778c1.3,0,1.94.64,1.94,1.746V20.2H20.425c-2.162,0-2.913.956-2.913,2.115,0,1.255,1.039,2.128,2.68,2.128a2.7,2.7,0,0,0,2.379-1.036v.954ZM22.5,22.151a2.1,2.1,0,0,1-2.092,1.282c-1,0-1.6-.45-1.6-1.173,0-.614.368-1.119,1.668-1.119H22.5Z" transform="translate(2.452 2.347)" fill="#141215"/>
      <path id="Path_1496" data-name="Path 1496" d="M26.431,17.123H25.119v4.161a2.844,2.844,0,0,0,3.117,3.151A2.951,2.951,0,0,0,30.7,23.262v1.091h1.244v-7.23H30.629v3.738a2.13,2.13,0,0,1-2.242,2.4c-1.244,0-1.955-.71-1.955-2.128Z" transform="translate(3.518 2.355)" fill="#141215"/>
      <path id="Path_1497" data-name="Path 1497" d="M35.919,24.626a2.484,2.484,0,0,0,1.586-.5l-.41-.942a1.655,1.655,0,0,1-1.025.341,1.067,1.067,0,0,1-1.135-1.215V18.392h2.078V17.314H34.934V15.732H33.621v1.582h-1.23v1.077h1.23v3.97a2.067,2.067,0,0,0,2.3,2.265" transform="translate(4.536 2.164)" fill="#141215"/>
      <path id="Path_1498" data-name="Path 1498" d="M41.241,24.443a3.691,3.691,0,1,0-3.774-3.7,3.6,3.6,0,0,0,3.774,3.7m0-6.235a2.374,2.374,0,0,1,2.434,2.538,2.443,2.443,0,1,1-4.881,0,2.384,2.384,0,0,1,2.447-2.538" transform="translate(5.247 2.347)" fill="#141215"/>
      <path id="Path_1499" data-name="Path 1499" d="M45.675,17.131v7.23h1.312v-3.6a2.16,2.16,0,0,1,2.284-2.442,2.324,2.324,0,0,1,.3.014V17.063a2.768,2.768,0,0,0-2.638,1.282V17.131Z" transform="translate(6.396 2.347)" fill="#141215"/>
      <path id="Path_1500" data-name="Path 1500" d="M51.2,16.105a.853.853,0,1,0-.888-.845.857.857,0,0,0,.888.845" transform="translate(7.045 1.98)" fill="#141215"/>
      <rect id="Rectangle_331" data-name="Rectangle 331" width="1.312" height="7.23" transform="translate(57.585 19.478)" fill="#141215"/>
      <path id="Path_1501" data-name="Path 1501" d="M53.247,24.353h6.071V23.276H54.93l4.279-5.294v-.859H53.329V18.2h4.2l-4.28,5.307Z" transform="translate(7.457 2.355)" fill="#141215"/>
      <path id="Path_1502" data-name="Path 1502" d="M60.37,18.973a3.672,3.672,0,0,1,2.3-.778c1.3,0,1.94.64,1.94,1.746V20.2H62.532c-2.162,0-2.913.956-2.913,2.115,0,1.255,1.039,2.128,2.68,2.128a2.7,2.7,0,0,0,2.379-1.036v.954h1.243V20c0-1.978-1.121-2.934-3.1-2.934a4.83,4.83,0,0,0-2.995.928Zm4.239,3.178a2.1,2.1,0,0,1-2.092,1.282c-1,0-1.6-.45-1.6-1.173,0-.614.368-1.119,1.668-1.119h2.022Z" transform="translate(8.349 2.347)" fill="#141215"/>
      <path id="Path_1503" data-name="Path 1503" d="M70.55,18.208a2.264,2.264,0,0,1,1.97,1.037l1-.642a3.234,3.234,0,0,0-2.954-1.541,3.693,3.693,0,1,0,0,7.38,3.247,3.247,0,0,0,2.954-1.555l-1-.628A2.264,2.264,0,0,1,70.55,23.3a2.4,2.4,0,0,1-2.489-2.551,2.4,2.4,0,0,1,2.489-2.538" transform="translate(9.346 2.347)" fill="#141215"/>
      <path id="Path_1504" data-name="Path 1504" d="M73.492,20.746a3.95,3.95,0,0,0,6.752,2.523l-.723-.845a2.712,2.712,0,0,1-2.092.872A2.452,2.452,0,0,1,74.8,21.182h5.878a3.806,3.806,0,0,0,.028-.395,3.491,3.491,0,0,0-3.583-3.725,3.545,3.545,0,0,0-3.636,3.684m3.636-2.579a2.257,2.257,0,0,1,2.325,2.074H74.8a2.255,2.255,0,0,1,2.323-2.074" transform="translate(10.292 2.347)" fill="#141215"/>
    </g>
  </g>
</svg>
