<svg id="Eye_licence_icon" xmlns="http://www.w3.org/2000/svg" width="24.892" height="19.361" viewBox="0 0 24.892 19.361">
  <path id="Eye_licence_icon-2" data-name="Eye_licence_icon" d="M12.446,32C5.6,32,1.3,38.452,0,41.68c1.3,3.228,5.6,9.68,12.446,9.68s11.15-6.452,12.446-9.68C23.6,38.452,19.291,32,12.446,32ZM6.223,41.68A6.223,6.223,0,1,1,12.446,47.9,6.223,6.223,0,0,1,6.223,41.68Zm2.074,0a4.149,4.149,0,1,0,4.149-4.149,4.211,4.211,0,0,0-.812.078l.812,4.071-4.071-.812A4.21,4.21,0,0,0,8.3,41.68Z" transform="translate(0 -32)"/>
</svg>
