<svg id="facebook_icon" xmlns="http://www.w3.org/2000/svg" width="40" height="39.822" viewBox="0 0 40 39.822">
  <g id="Vrstva_1">
    <path id="Path_1515" data-name="Path 1515" d="M44.956,25.178A19.978,19.978,0,0,0,5,25.178c0,11.054,6.437,17.225,15.139,19.4V31.3H16.01V25.222h4.129V22.6c0-6.792,3.063-9.945,9.767-9.945s3.463.266,4.351.488v5.5c-.488-.044-1.287-.089-2.309-.089-3.285,0-4.528,1.243-4.528,4.484v2.175h6.526L32.836,31.3H27.42V45.022A20.012,20.012,0,0,0,45,25.178h-.044Z" transform="translate(-5 -5.2)" fill="#008630"/>
  </g>
</svg>
