<svg id="Logo_desktop" xmlns="http://www.w3.org/2000/svg" xmlns:xlink="http://www.w3.org/1999/xlink" width="260" height="117.716" viewBox="0 0 260 117.716">
  <defs>
    <clipPath id="clip-path">
      <rect id="Rectangle_333" data-name="Rectangle 333" width="260" height="117.716" fill="none"/>
    </clipPath>
  </defs>
  <path id="Path_1505" data-name="Path 1505" d="M94.427,103.77V96.693l16.679-21.84H95.58V66.132h29.572v7.3L108.967,94.88H264.139l-.013,8.888Z" transform="translate(-14.125 -9.892)" fill="#247420" fill-rule="evenodd"/>
  <g id="Group_821" data-name="Group 821">
    <g id="Group_820" data-name="Group 820" clip-path="url(#clip-path)">
      <path id="Path_1506" data-name="Path 1506" d="M141.2,74.616a9.986,9.986,0,1,1-9.986,9.986,9.986,9.986,0,0,1,9.986-9.986" transform="translate(-19.627 -11.161)" fill="#121211" fill-rule="evenodd"/>
      <path id="Path_1507" data-name="Path 1507" d="M184.456,0a9.986,9.986,0,1,1-9.986,9.986A9.986,9.986,0,0,1,184.456,0" transform="translate(-26.098)" fill="#121211" fill-rule="evenodd"/>
      <path id="Path_1508" data-name="Path 1508" d="M170.5,16.109c5.784,11.936,18.122,11.034,23.373,0h8.45c5.7.015,6.609,1.362,6.638,5.631l.164,39.142c-3.039-1.071-5.668.268-10.14,2.055L198.7,30.516l-2.567.1-.172,32.865c-12.765,5.874-17.658-3.242-25.8-2.11l.022-30.926-2.245.151v30.78c-3.084,1.606-5.83,4.193-9.391,4.847l-.027-45.76c.931-5.575,7.83-4.179,11.981-4.349" transform="translate(-23.71 -2.404)" fill="#121211" fill-rule="evenodd"/>
      <path id="Path_1509" data-name="Path 1509" d="M257.2,126.392h2.1v-4.876q0-1.69-1.04-1.69t-1.051,1.69Zm0,4.109v3.892h-4.94V119.723a4.518,4.518,0,0,1,.715-2.947,2.41,2.41,0,0,1,1.374-.641,16.34,16.34,0,0,1,2.9-.185h2.01a16.339,16.339,0,0,1,2.9.185,2.409,2.409,0,0,1,1.374.641,4.518,4.518,0,0,1,.715,2.947v14.671H259.3V130.5Zm-5.686-.308-.91,4.2h-7.362V120.628a28.059,28.059,0,0,0-.286-4.68h5.679a22.03,22.03,0,0,0-.447,4.543v9.888Zm-14.486-1.01v-7.961c0-.964-.351-1.448-1.055-1.448s-1.066.483-1.066,1.448v7.963c0,.974.355,1.458,1.066,1.458s1.055-.484,1.055-1.458m4.94-5.746v3.46q0,4.462-.992,5.98c-.664,1.015-1.96,1.522-3.9,1.522h-2.22c-1.937,0-3.233-.507-3.9-1.522s-.992-3-.992-5.98v-3.46c0-2.961.333-4.954.992-5.964s1.959-1.522,3.9-1.522h2.231c1.937,0,3.233.507,3.9,1.522s.992,3,.992,5.964m-25.2-7.485h4.94v7.214h.729a1.117,1.117,0,0,0,1.108-.512,5.805,5.805,0,0,0,.259-2.173v-2.108a6.2,6.2,0,0,1,.42-2.422h4.916a8.679,8.679,0,0,0-.389,2.934v2.172a9.27,9.27,0,0,1-.115,1.777,2.247,2.247,0,0,1-.52,1,3.858,3.858,0,0,1-2.346,1.078c-.083.019-.2.047-.366.08.26.045.452.079.581.1a3.413,3.413,0,0,1,2.158,1,3.8,3.8,0,0,1,.608,2.4v2.582a11.546,11.546,0,0,0,.39,3.325h-4.741a7,7,0,0,1-.6-3.228v-1.69a3.528,3.528,0,0,0-.324-1.79,1.228,1.228,0,0,0-1.12-.507h-.651V134.4h-4.94Zm-4.03,2.22H208.78l-2.55-4.055h3.145l1.392,2.159,1.407-2.159H215.3Zm-5.516-1.743,1.341,2.108h4.374l1.636-2.583h.609v4h-4.354v3.209h.89a3.968,3.968,0,0,1,3.174.983,6.645,6.645,0,0,1,.793,3.91V129.2a12.373,12.373,0,0,1-.3,3.214,2.493,2.493,0,0,1-1.115,1.582,6.251,6.251,0,0,1-2.643.39l-1.055.014h-4.622v-4.016h4.649v-3.2h-.771a4.012,4.012,0,0,1-3.209-.945,7.476,7.476,0,0,1-.737-4.11v-1.147q0-3.611,1.338-4.551m-13.13-2.31h4.446l-2.6,4.04H192.5Zm-.554,12.277h2.093v-4.881q0-1.7-1.04-1.7c-.694,0-1.052.566-1.052,1.7Zm-.582-10.428-1.028,2.569h4.2l1.609-2.5a3.192,3.192,0,0,1,2.274.91,4.834,4.834,0,0,1,.561,2.772v14.69h-4.94v-3.892h-2.093v3.892h-4.94v-14.69a4.108,4.108,0,0,1,.811-3,5.1,5.1,0,0,1,3.28-.742Zm-17.632-.014h4.94v7.214h.73a1.114,1.114,0,0,0,1.106-.512,5.789,5.789,0,0,0,.26-2.173v-2.108a6.233,6.233,0,0,1,.42-2.422h4.916a8.636,8.636,0,0,0-.389,2.934v2.172a9.269,9.269,0,0,1-.115,1.777,2.243,2.243,0,0,1-.52,1,3.858,3.858,0,0,1-2.346,1.078c-.083.019-.2.047-.364.08.259.045.451.079.581.1a3.411,3.411,0,0,1,2.158,1,3.81,3.81,0,0,1,.609,2.4v2.582a11.516,11.516,0,0,0,.389,3.325h-4.741a7,7,0,0,1-.6-3.228v-1.69a3.536,3.536,0,0,0-.323-1.79,1.231,1.231,0,0,0-1.121-.507h-.65V134.4h-4.94Zm-1.582,0v4.013H169.4v3.2h.89a3.969,3.969,0,0,1,3.173.983,6.645,6.645,0,0,1,.793,3.91V129.2a12.336,12.336,0,0,1-.3,3.214,2.489,2.489,0,0,1-1.115,1.583,6.211,6.211,0,0,1-2.643.389l-1.052.014h-4.623v-4.015h4.649v-3.2H168.4a4.012,4.012,0,0,1-3.209-.945,7.476,7.476,0,0,1-.737-4.11V121a7.3,7.3,0,0,1,.8-4.03,2.046,2.046,0,0,1,1.144-.8,8.885,8.885,0,0,1,2.294-.217h5.069Zm-17.429,7.214h.7a1.529,1.529,0,0,0,1.134-.3,2.06,2.06,0,0,0,.272-1.277,1.959,1.959,0,0,0-.308-1.269,1.415,1.415,0,0,0-1.1-.351h-.7Zm-4.94-7.214h8.5a6.73,6.73,0,0,1,1.933.2,1.873,1.873,0,0,1,.986.77,4.748,4.748,0,0,1,.554,2.593v1.189a6.526,6.526,0,0,1-.539,3.2,2.76,2.76,0,0,1-2.163,1.028,4.191,4.191,0,0,1,2.169,1.17,3.941,3.941,0,0,1,.536,2.34v2.86a11.319,11.319,0,0,0,.39,3.1H158.8a10.8,10.8,0,0,1-.378-3.108v-2.459q0-1.653-1.457-1.651h-.622V134.4H151.4Zm-5.9-1.835h4.446l-2.61,4.04h-3.469ZM144.342,116l-1.015,2.542h4.188l1.674-2.584h1.365v4h-4.591v3.209h4.579v4.013h-4.579v3.206h4.579V134.4h-4.636l-.986-.014a6.348,6.348,0,0,1-2.393-.319,2.006,2.006,0,0,1-1.047-1.249,17.358,17.358,0,0,1-.462-5.07V121.86q0-3.93.862-4.972a3.237,3.237,0,0,1,2.449-.89m-4.839-.042v4.013h-4.353v3.2h.89a3.967,3.967,0,0,1,3.172.982,6.638,6.638,0,0,1,.793,3.91V129.2a12.338,12.338,0,0,1-.3,3.214,2.494,2.494,0,0,1-1.116,1.582,6.209,6.209,0,0,1-2.643.39l-1.051.014h-4.622v-4.017h4.649v-3.2h-.77a4.012,4.012,0,0,1-3.209-.945,7.47,7.47,0,0,1-.739-4.11V121a7.3,7.3,0,0,1,.8-4.03,2.046,2.046,0,0,1,1.144-.8,8.879,8.879,0,0,1,2.292-.217h5.07ZM122.007,126.4h2.09v-4.881q0-1.69-1.04-1.69t-1.052,1.69Zm0,4.109V134.4h-4.94V119.723a4.518,4.518,0,0,1,.715-2.947,2.407,2.407,0,0,1,1.374-.641,16.335,16.335,0,0,1,2.9-.185h2.011a16.345,16.345,0,0,1,2.9.185,2.41,2.41,0,0,1,1.374.641,4.518,4.518,0,0,1,.715,2.947v14.671H124.1V130.5ZM96.428,115.956h4.985a16.9,16.9,0,0,1,.489,2.422,3.213,3.213,0,0,1,1.07-1.928,4.414,4.414,0,0,1,2.412-.494,4.53,4.53,0,0,1,2.425.462,3.37,3.37,0,0,1,1.061,1.959,3.309,3.309,0,0,1,1.14-1.936,4.769,4.769,0,0,1,2.5-.484,3.589,3.589,0,0,1,2.643.711,4.609,4.609,0,0,1,.642,2.924V134.4h-4.94V121.944a3.021,3.021,0,0,0-.217-1.365.836.836,0,0,0-.8-.378.856.856,0,0,0-.807.39,2.913,2.913,0,0,0-.221,1.356V134.4h-4.94V121.637c0-.982-.333-1.475-1-1.475s-1.025.512-1.025,1.541v12.7H96.9V120.152a18.373,18.373,0,0,0-.461-4.2" transform="translate(-14.424 -17.07)" fill="#121211"/>
      <path id="Path_1510" data-name="Path 1510" d="M54.2,94.45,66.608,77.94V94.45ZM77.013,66.137H62.593L40.869,94.45H6.194L0,103.593H33.853L15.426,127.609l13.909-.1,17.98-23.92H66.608v23.572h10.4Z" transform="translate(0 -9.893)" fill="#247420" fill-rule="evenodd"/>
      <path id="Path_1511" data-name="Path 1511" d="M280.564,78.449h0a2.624,2.624,0,0,1,2.616,2.614v21.725a2.616,2.616,0,0,1-5.23.116c0-.039,0-.077,0-.116V90.968l-52.193-.186a5.941,5.941,0,0,0,.088-1.021,5.757,5.757,0,0,0-1.722-4.142,5.486,5.486,0,0,0-3.835-1.572H158.7a5.443,5.443,0,0,0-2.1.422,10.939,10.939,0,0,0-1.637-6.37c10.309,0,11.4-10.28,21.978-4.466,10.294,3.46,13.214,3.46,21.3,0,7.905-3.46,16.519-5.36,21.536,5.7l60.58-.95v.071c.065,0,.129-.008.2-.008" transform="translate(-23.18 -10.611)" fill="#121211" fill-rule="evenodd"/>
      <path id="Path_1512" data-name="Path 1512" d="M159.734,87.349H219.99a4.87,4.87,0,0,1,.225,9.737c-.076,0-.151,0-.225,0H159.734a4.87,4.87,0,0,1-.225-9.737c.075,0,.151,0,.225,0" transform="translate(-23.148 -13.066)" fill="#121211" fill-rule="evenodd"/>
    </g>
  </g>
</svg>
